# MagicaVoxel @ Ephtracy

# group
o 

# material
mtllib Tile_001.mtl
usemtl palette

# normals
vn -1 0 0
vn 1 0 0
vn 0 0 1
vn 0 0 -1
vn 0 -1 0
vn 0 1 0

# texcoords
vt 0.0644531 0.5
vt 0.162109 0.5
vt 0.228516 0.5
vt 0.466797 0.5
vt 0.771484 0.5
vt 0.794922 0.5

# verts
v -0.5 0 0.5
v -0.5 0 -0.5
v -0.5 0.1 0.5
v -0.5 0.1 -0.3
v -0.5 0.1 -0.4
v -0.5 0.1 -0.5
v -0.5 0.2 0.3
v -0.5 0.2 0
v -0.5 0.2 -0.3
v -0.5 0.2 -0.4
v -0.5 0.3 0.3
v -0.5 0.3 0
v -0.5 0.3 -0.2
v -0.5 0.3 -0.3
v -0.5 0.4 0.2
v -0.5 0.4 0.1
v -0.5 0.4 0
v -0.5 0.4 -0.2
v -0.5 0.4 -0.3
v -0.5 0.5 0.2
v -0.5 0.5 0.1
v -0.5 0.5 -0.2
v -0.5 0.5 -0.3
v -0.5 0.6 0.4
v -0.5 0.6 0.3
v -0.5 0.6 0.2
v -0.5 0.6 0.1
v -0.5 0.6 -0.3
v -0.5 0.6 -0.4
v -0.5 0.7 0.5
v -0.5 0.7 0.4
v -0.5 0.7 0.3
v -0.5 0.7 0.2
v -0.5 0.7 0
v -0.5 0.7 -0.2
v -0.5 0.7 -0.4
v -0.5 0.7 -0.5
v -0.5 1 0.5
v -0.5 1 -0.5
v 0.5 0 0.5
v 0.5 0 -0.5
v 0.5 0.1 0.5
v 0.5 0.1 -0.2
v 0.5 0.1 -0.4
v 0.5 0.1 -0.5
v 0.5 0.2 0.2
v 0.5 0.2 0
v 0.5 0.2 -0.2
v 0.5 0.2 -0.4
v 0.5 0.3 0.4
v 0.5 0.3 0.3
v 0.5 0.3 0.2
v 0.5 0.3 0
v 0.5 0.4 0.4
v 0.5 0.4 0.3
v 0.5 0.4 -0.3
v 0.5 0.4 -0.4
v 0.5 0.5 -0.2
v 0.5 0.5 -0.3
v 0.5 0.5 -0.4
v 0.5 0.6 0.4
v 0.5 0.6 0.3
v 0.5 0.6 0.2
v 0.5 0.6 0
v 0.5 0.6 -0.3
v 0.5 0.6 -0.4
v 0.5 0.7 0.5
v 0.5 0.7 0.4
v 0.5 0.7 0.3
v 0.5 0.7 0.2
v 0.5 0.7 0
v 0.5 0.7 -0.2
v 0.5 0.7 -0.4
v 0.5 0.7 -0.5
v 0.5 1 0.5
v 0.5 1 -0.5
v -0.5 0 0.5
v -0.5 0.1 0.5
v -0.5 0.7 0.5
v -0.5 1 0.5
v -0.4 0.2 0.5
v -0.4 0.3 0.5
v -0.4 0.6 0.5
v -0.4 0.7 0.5
v -0.3 0.2 0.5
v -0.3 0.3 0.5
v -0.3 0.6 0.5
v -0.3 0.7 0.5
v -0.2 0.5 0.5
v -0.2 0.7 0.5
v -0.1 0.1 0.5
v -0.1 0.2 0.5
v -0.1 0.5 0.5
v -0.1 0.6 0.5
v 0 0.6 0.5
v 0 0.7 0.5
v 0.1 0.3 0.5
v 0.1 0.4 0.5
v 0.1 0.6 0.5
v 0.1 0.7 0.5
v 0.2 0.5 0.5
v 0.2 0.6 0.5
v 0.2 0.9 0.5
v 0.2 1 0.5
v 0.3 0.1 0.5
v 0.3 0.2 0.5
v 0.3 0.5 0.5
v 0.3 0.7 0.5
v 0.3 0.9 0.5
v 0.3 1 0.5
v 0.4 0.3 0.5
v 0.4 0.4 0.5
v 0.5 0 0.5
v 0.5 0.1 0.5
v 0.5 0.7 0.5
v 0.5 1 0.5
v -0.5 0 -0.5
v -0.5 0.1 -0.5
v -0.5 0.7 -0.5
v -0.5 1 -0.5
v -0.4 0.3 -0.5
v -0.4 0.4 -0.5
v -0.4 0.5 -0.5
v -0.4 0.6 -0.5
v -0.3 0.3 -0.5
v -0.3 0.4 -0.5
v -0.3 0.5 -0.5
v -0.3 0.6 -0.5
v -0.3 0.7 -0.5
v -0.2 0.1 -0.5
v -0.2 0.2 -0.5
v -0.2 0.6 -0.5
v -0.2 0.7 -0.5
v -0.2 0.9 -0.5
v -0.2 1 -0.5
v -0.1 0.1 -0.5
v -0.1 0.2 -0.5
v -0.1 0.3 -0.5
v -0.1 0.4 -0.5
v -0.1 0.5 -0.5
v -0.1 0.7 -0.5
v -0.1 0.9 -0.5
v -0.1 1 -0.5
v 0 0.5 -0.5
v 0 0.6 -0.5
v 0.1 0.6 -0.5
v 0.1 0.7 -0.5
v 0.3 0.3 -0.5
v 0.3 0.4 -0.5
v 0.3 0.6 -0.5
v 0.3 0.7 -0.5
v 0.4 0.6 -0.5
v 0.4 0.7 -0.5
v 0.5 0 -0.5
v 0.5 0.1 -0.5
v 0.5 0.7 -0.5
v 0.5 1 -0.5
v -0.5 0 0.5
v 0.5 0 0.5
v -0.4 0 0.4
v 0.4 0 0.4
v -0.4 0 -0.4
v 0.4 0 -0.4
v -0.5 0 -0.5
v 0.5 0 -0.5
v -0.5 1 0.5
v 0.2 1 0.5
v 0.3 1 0.5
v 0.5 1 0.5
v -0.4 1 0.4
v -0.3 1 0.4
v 0 1 0.4
v 0.1 1 0.4
v 0.2 1 0.4
v 0.3 1 0.4
v -0.4 1 0.3
v -0.3 1 0.3
v -0.2 1 0.3
v -0.1 1 0.3
v 0 1 0.3
v 0.1 1 0.3
v 0.2 1 0.3
v 0.3 1 0.3
v 0.2 1 0.2
v 0.3 1 0.2
v -0.4 1 0.1
v -0.3 1 0.1
v -0.2 1 0.1
v -0.1 1 0.1
v -0.2 1 0
v -0.1 1 0
v 0 1 0
v 0.1 1 0
v 0.2 1 0
v 0.3 1 0
v -0.2 1 -0.1
v -0.1 1 -0.1
v 0.2 1 -0.1
v 0.3 1 -0.1
v -0.4 1 -0.2
v -0.3 1 -0.2
v -0.2 1 -0.2
v -0.1 1 -0.2
v 0.2 1 -0.2
v 0.3 1 -0.2
v -0.4 1 -0.3
v -0.3 1 -0.3
v 0.3 1 -0.3
v 0.4 1 -0.3
v -0.4 1 -0.4
v -0.3 1 -0.4
v -0.2 1 -0.4
v -0.1 1 -0.4
v 0.3 1 -0.4
v 0.4 1 -0.4
v -0.5 1 -0.5
v -0.2 1 -0.5
v -0.1 1 -0.5
v 0.5 1 -0.5

# faces
f 3/3/1 2/3/1 1/3/1
f 4/3/1 2/3/1 3/3/1
f 5/3/1 2/3/1 4/3/1
f 6/3/1 2/3/1 5/3/1
f 7/1/1 4/1/1 3/1/1
f 8/1/1 4/1/1 7/1/1
f 9/3/1 5/3/1 4/3/1
f 9/1/1 4/1/1 8/1/1
f 10/1/1 6/1/1 5/1/1
f 10/3/1 5/3/1 9/3/1
f 11/3/1 8/3/1 7/3/1
f 11/1/1 7/1/1 3/1/1
f 12/1/1 9/1/1 8/1/1
f 12/3/1 8/3/1 11/3/1
f 12/1/1 10/1/1 9/1/1
f 13/1/1 10/1/1 12/1/1
f 14/1/1 10/1/1 13/1/1
f 15/1/1 12/1/1 11/1/1
f 15/1/1 13/1/1 12/1/1
f 16/1/1 13/1/1 15/1/1
f 17/1/1 13/1/1 16/1/1
f 18/3/1 14/3/1 13/3/1
f 18/1/1 13/1/1 17/1/1
f 19/1/1 10/1/1 14/1/1
f 19/3/1 14/3/1 18/3/1
f 20/1/1 15/1/1 11/1/1
f 20/3/1 16/3/1 15/3/1
f 21/4/1 17/4/1 16/4/1
f 21/3/1 16/3/1 20/3/1
f 22/1/1 18/1/1 17/1/1
f 22/1/1 19/1/1 18/1/1
f 23/1/1 10/1/1 19/1/1
f 23/1/1 19/1/1 22/1/1
f 24/1/1 11/1/1 3/1/1
f 24/1/1 20/1/1 11/1/1
f 24/1/1 21/1/1 20/1/1
f 25/1/1 21/1/1 24/1/1
f 26/1/1 21/1/1 25/1/1
f 27/4/1 17/4/1 21/4/1
f 27/1/1 21/1/1 26/1/1
f 28/1/1 10/1/1 23/1/1
f 28/4/1 23/4/1 22/4/1
f 29/1/1 6/1/1 10/1/1
f 29/1/1 10/1/1 28/1/1
f 30/1/1 24/1/1 3/1/1
f 31/4/1 25/4/1 24/4/1
f 31/1/1 24/1/1 30/1/1
f 32/1/1 26/1/1 25/1/1
f 32/4/1 25/4/1 31/4/1
f 33/4/1 27/4/1 26/4/1
f 33/1/1 26/1/1 32/1/1
f 34/4/1 17/4/1 27/4/1
f 34/4/1 27/4/1 33/4/1
f 34/1/1 22/1/1 17/1/1
f 35/4/1 28/4/1 22/4/1
f 35/1/1 22/1/1 34/1/1
f 35/4/1 29/4/1 28/4/1
f 36/1/1 6/1/1 29/1/1
f 36/4/1 29/4/1 35/4/1
f 37/1/1 6/1/1 36/1/1
f 38/4/1 34/4/1 33/4/1
f 38/4/1 33/4/1 32/4/1
f 38/4/1 37/4/1 36/4/1
f 38/4/1 36/4/1 35/4/1
f 38/4/1 35/4/1 34/4/1
f 38/4/1 31/4/1 30/4/1
f 38/4/1 32/4/1 31/4/1
f 39/4/1 37/4/1 38/4/1
f 40/3/2 41/3/2 42/3/2
f 42/3/2 41/3/2 43/3/2
f 43/3/2 41/3/2 44/3/2
f 44/3/2 41/3/2 45/3/2
f 42/1/2 43/1/2 46/1/2
f 46/1/2 43/1/2 47/1/2
f 43/3/2 44/3/2 48/3/2
f 47/1/2 43/1/2 48/1/2
f 44/1/2 45/1/2 49/1/2
f 48/3/2 44/3/2 49/3/2
f 42/1/2 46/1/2 50/1/2
f 50/1/2 46/1/2 51/1/2
f 46/3/2 47/3/2 52/3/2
f 51/1/2 46/1/2 52/1/2
f 47/1/2 48/1/2 53/1/2
f 52/3/2 47/3/2 53/3/2
f 48/1/2 49/1/2 53/1/2
f 50/3/2 51/3/2 54/3/2
f 42/1/2 50/1/2 54/1/2
f 51/1/2 52/1/2 55/1/2
f 54/3/2 51/3/2 55/3/2
f 52/1/2 53/1/2 55/1/2
f 53/1/2 49/1/2 56/1/2
f 55/1/2 53/1/2 56/1/2
f 49/1/2 45/1/2 57/1/2
f 56/1/2 49/1/2 57/1/2
f 54/1/2 55/1/2 58/1/2
f 55/1/2 56/1/2 58/1/2
f 56/3/2 57/3/2 59/3/2
f 58/1/2 56/1/2 59/1/2
f 57/1/2 45/1/2 60/1/2
f 59/3/2 57/3/2 60/3/2
f 42/1/2 54/1/2 61/1/2
f 54/1/2 58/1/2 61/1/2
f 61/1/2 58/1/2 62/1/2
f 62/1/2 58/1/2 63/1/2
f 63/1/2 58/1/2 64/1/2
f 58/4/2 59/4/2 65/4/2
f 59/1/2 60/1/2 65/1/2
f 60/1/2 45/1/2 66/1/2
f 65/1/2 60/1/2 66/1/2
f 42/1/2 61/1/2 67/1/2
f 61/4/2 62/4/2 68/4/2
f 67/1/2 61/1/2 68/1/2
f 62/1/2 63/1/2 69/1/2
f 68/4/2 62/4/2 69/4/2
f 63/4/2 64/4/2 70/4/2
f 69/1/2 63/1/2 70/1/2
f 64/1/2 58/1/2 71/1/2
f 70/4/2 64/4/2 71/4/2
f 58/4/2 65/4/2 72/4/2
f 71/1/2 58/1/2 72/1/2
f 65/4/2 66/4/2 72/4/2
f 66/1/2 45/1/2 73/1/2
f 72/4/2 66/4/2 73/4/2
f 73/1/2 45/1/2 74/1/2
f 69/4/2 70/4/2 75/4/2
f 70/4/2 71/4/2 75/4/2
f 73/4/2 74/4/2 75/4/2
f 72/4/2 73/4/2 75/4/2
f 67/4/2 68/4/2 75/4/2
f 68/4/2 69/4/2 75/4/2
f 71/4/2 72/4/2 75/4/2
f 75/4/2 74/4/2 76/4/2
f 81/1/3 79/1/3 78/1/3
f 82/1/3 79/1/3 81/1/3
f 83/1/3 79/1/3 82/1/3
f 84/4/3 80/4/3 79/4/3
f 84/1/3 79/1/3 83/1/3
f 85/1/3 81/1/3 78/1/3
f 85/3/3 82/3/3 81/3/3
f 86/1/3 83/1/3 82/1/3
f 86/3/3 82/3/3 85/3/3
f 87/4/3 84/4/3 83/4/3
f 87/1/3 83/1/3 86/1/3
f 88/4/3 80/4/3 84/4/3
f 88/4/3 84/4/3 87/4/3
f 89/1/3 87/1/3 86/1/3
f 89/1/3 86/1/3 85/1/3
f 89/1/3 88/1/3 87/1/3
f 90/4/3 80/4/3 88/4/3
f 90/1/3 88/1/3 89/1/3
f 91/3/3 78/3/3 77/3/3
f 91/1/3 85/1/3 78/1/3
f 91/1/3 89/1/3 85/1/3
f 92/1/3 89/1/3 91/1/3
f 93/4/3 90/4/3 89/4/3
f 93/1/3 89/1/3 92/1/3
f 94/4/3 90/4/3 93/4/3
f 95/1/3 93/1/3 92/1/3
f 95/4/3 90/4/3 94/4/3
f 95/1/3 94/1/3 93/1/3
f 96/4/3 80/4/3 90/4/3
f 96/4/3 90/4/3 95/4/3
f 97/1/3 95/1/3 92/1/3
f 97/1/3 96/1/3 95/1/3
f 98/1/3 96/1/3 97/1/3
f 99/1/3 96/1/3 98/1/3
f 100/4/3 80/4/3 96/4/3
f 100/1/3 96/1/3 99/1/3
f 101/1/3 99/1/3 98/1/3
f 102/4/3 100/4/3 99/4/3
f 102/1/3 99/1/3 101/1/3
f 103/4/3 80/4/3 100/4/3
f 103/4/3 100/4/3 102/4/3
f 104/4/3 80/4/3 103/4/3
f 105/3/3 92/3/3 91/3/3
f 105/3/3 91/3/3 77/3/3
f 106/1/3 97/1/3 92/1/3
f 106/3/3 92/3/3 105/3/3
f 107/4/3 102/4/3 101/4/3
f 107/1/3 101/1/3 98/1/3
f 107/4/3 103/4/3 102/4/3
f 108/4/3 103/4/3 107/4/3
f 109/5/3 104/5/3 103/5/3
f 109/4/3 103/4/3 108/4/3
f 110/5/3 104/5/3 109/5/3
f 111/1/3 97/1/3 106/1/3
f 111/3/3 98/3/3 97/3/3
f 111/1/3 106/1/3 105/1/3
f 112/1/3 108/1/3 107/1/3
f 112/3/3 98/3/3 111/3/3
f 112/1/3 107/1/3 98/1/3
f 113/3/3 105/3/3 77/3/3
f 114/1/3 111/1/3 105/1/3
f 114/3/3 105/3/3 113/3/3
f 114/1/3 112/1/3 111/1/3
f 115/1/3 108/1/3 112/1/3
f 115/1/3 112/1/3 114/1/3
f 115/4/3 110/4/3 109/4/3
f 115/4/3 109/4/3 108/4/3
f 116/4/3 110/4/3 115/4/3
f 118/1/4 119/1/4 121/1/4
f 121/1/4 119/1/4 122/1/4
f 122/1/4 119/1/4 123/1/4
f 123/1/4 119/1/4 124/1/4
f 118/1/4 121/1/4 125/1/4
f 121/3/4 122/3/4 125/3/4
f 122/1/4 123/1/4 126/1/4
f 125/3/4 122/3/4 126/3/4
f 123/4/4 124/4/4 127/4/4
f 126/1/4 123/1/4 127/1/4
f 124/1/4 119/1/4 128/1/4
f 127/4/4 124/4/4 128/4/4
f 119/4/4 120/4/4 129/4/4
f 128/1/4 119/1/4 129/1/4
f 117/3/4 118/3/4 130/3/4
f 127/1/4 128/1/4 130/1/4
f 126/1/4 127/1/4 130/1/4
f 118/1/4 125/1/4 130/1/4
f 125/1/4 126/1/4 130/1/4
f 130/1/4 128/1/4 131/1/4
f 128/4/4 129/4/4 132/4/4
f 131/1/4 128/1/4 132/1/4
f 129/4/4 120/4/4 133/4/4
f 132/4/4 129/4/4 133/4/4
f 133/4/4 120/4/4 134/4/4
f 134/4/4 120/4/4 135/4/4
f 130/3/4 131/3/4 136/3/4
f 117/3/4 130/3/4 136/3/4
f 131/1/4 132/1/4 137/1/4
f 136/3/4 131/3/4 137/3/4
f 132/1/4 133/1/4 137/1/4
f 137/1/4 133/1/4 138/1/4
f 138/1/4 133/1/4 139/1/4
f 139/1/4 133/1/4 140/1/4
f 133/4/4 134/4/4 141/4/4
f 140/1/4 133/1/4 141/1/4
f 134/5/4 135/5/4 142/5/4
f 141/4/4 134/4/4 142/4/4
f 142/5/4 135/5/4 143/5/4
f 140/4/4 141/4/4 144/4/4
f 139/1/4 140/1/4 144/1/4
f 142/4/4 143/4/4 144/4/4
f 141/4/4 142/4/4 144/4/4
f 144/4/4 143/4/4 145/4/4
f 144/1/4 145/1/4 146/1/4
f 145/4/4 143/4/4 146/4/4
f 146/4/4 143/4/4 147/4/4
f 138/3/4 139/3/4 148/3/4
f 136/1/4 137/1/4 148/1/4
f 137/1/4 138/1/4 148/1/4
f 146/1/4 147/1/4 149/1/4
f 148/3/4 139/3/4 149/3/4
f 144/1/4 146/1/4 149/1/4
f 139/1/4 144/1/4 149/1/4
f 149/1/4 147/1/4 150/1/4
f 147/4/4 143/4/4 151/4/4
f 150/1/4 147/1/4 151/1/4
f 149/1/4 150/1/4 152/1/4
f 148/1/4 149/1/4 152/1/4
f 150/4/4 151/4/4 152/4/4
f 151/4/4 143/4/4 153/4/4
f 152/4/4 151/4/4 153/4/4
f 117/3/4 136/3/4 154/3/4
f 148/1/4 152/1/4 155/1/4
f 154/3/4 136/3/4 155/3/4
f 136/1/4 148/1/4 155/1/4
f 152/1/4 153/1/4 155/1/4
f 153/4/4 143/4/4 156/4/4
f 155/1/4 153/1/4 156/1/4
f 156/4/4 143/4/4 157/4/4
f 160/3/5 159/3/5 158/3/5
f 161/3/5 159/3/5 160/3/5
f 162/3/5 160/3/5 158/3/5
f 162/1/5 161/1/5 160/1/5
f 163/3/5 159/3/5 161/3/5
f 163/1/5 161/1/5 162/1/5
f 164/3/5 162/3/5 158/3/5
f 164/3/5 163/3/5 162/3/5
f 165/3/5 159/3/5 163/3/5
f 165/3/5 163/3/5 164/3/5
f 166/4/6 167/4/6 170/4/6
f 170/4/6 167/4/6 171/4/6
f 171/4/6 167/4/6 172/4/6
f 172/4/6 167/4/6 173/4/6
f 167/5/6 168/5/6 174/5/6
f 173/4/6 167/4/6 174/4/6
f 168/4/6 169/4/6 175/4/6
f 174/5/6 168/5/6 175/5/6
f 166/4/6 170/4/6 176/4/6
f 170/6/6 171/6/6 176/6/6
f 171/4/6 172/4/6 177/4/6
f 176/6/6 171/6/6 177/6/6
f 177/4/6 172/4/6 178/4/6
f 178/4/6 172/4/6 179/4/6
f 172/6/6 173/6/6 180/6/6
f 179/4/6 172/4/6 180/4/6
f 173/4/6 174/4/6 181/4/6
f 180/6/6 173/6/6 181/6/6
f 174/4/6 175/4/6 181/4/6
f 181/4/6 175/4/6 182/4/6
f 175/4/6 169/4/6 183/4/6
f 182/4/6 175/4/6 183/4/6
f 181/4/6 182/4/6 184/4/6
f 182/2/6 183/2/6 184/2/6
f 183/4/6 169/4/6 185/4/6
f 184/2/6 183/2/6 185/2/6
f 177/4/6 178/4/6 186/4/6
f 166/4/6 176/4/6 186/4/6
f 176/4/6 177/4/6 186/4/6
f 186/4/6 178/4/6 187/4/6
f 178/5/6 179/5/6 188/5/6
f 187/4/6 178/4/6 188/4/6
f 179/4/6 180/4/6 189/4/6
f 188/5/6 179/5/6 189/5/6
f 187/4/6 188/4/6 190/4/6
f 188/2/6 189/2/6 190/2/6
f 189/4/6 180/4/6 191/4/6
f 190/2/6 189/2/6 191/2/6
f 180/5/6 181/5/6 192/5/6
f 191/4/6 180/4/6 192/4/6
f 181/4/6 184/4/6 193/4/6
f 192/5/6 181/5/6 193/5/6
f 184/4/6 185/4/6 193/4/6
f 193/4/6 185/4/6 194/4/6
f 185/4/6 169/4/6 195/4/6
f 194/4/6 185/4/6 195/4/6
f 187/4/6 190/4/6 196/4/6
f 191/4/6 192/4/6 196/4/6
f 193/4/6 194/4/6 196/4/6
f 192/4/6 193/4/6 196/4/6
f 190/4/6 191/4/6 196/4/6
f 196/4/6 194/4/6 197/4/6
f 194/5/6 195/5/6 198/5/6
f 197/4/6 194/4/6 198/4/6
f 195/4/6 169/4/6 199/4/6
f 198/5/6 195/5/6 199/5/6
f 186/2/6 187/2/6 200/2/6
f 166/4/6 186/4/6 200/4/6
f 187/4/6 196/4/6 201/4/6
f 200/2/6 187/2/6 201/2/6
f 196/6/6 197/6/6 202/6/6
f 201/4/6 196/4/6 202/4/6
f 197/4/6 198/4/6 203/4/6
f 202/6/6 197/6/6 203/6/6
f 198/6/6 199/6/6 204/6/6
f 203/4/6 198/4/6 204/4/6
f 199/4/6 169/4/6 205/4/6
f 204/6/6 199/6/6 205/6/6
f 201/4/6 202/4/6 206/4/6
f 203/4/6 204/4/6 206/4/6
f 204/4/6 205/4/6 206/4/6
f 166/4/6 200/4/6 206/4/6
f 202/4/6 203/4/6 206/4/6
f 200/4/6 201/4/6 206/4/6
f 206/4/6 205/4/6 207/4/6
f 205/4/6 169/4/6 208/4/6
f 207/4/6 205/4/6 208/4/6
f 208/4/6 169/4/6 209/4/6
f 206/5/6 207/5/6 210/5/6
f 166/4/6 206/4/6 210/4/6
f 207/4/6 208/4/6 211/4/6
f 210/5/6 207/5/6 211/5/6
f 211/4/6 208/4/6 212/4/6
f 212/4/6 208/4/6 213/4/6
f 208/5/6 209/5/6 214/5/6
f 213/4/6 208/4/6 214/4/6
f 209/4/6 169/4/6 215/4/6
f 214/5/6 209/5/6 215/5/6
f 166/4/6 210/4/6 216/4/6
f 210/4/6 211/4/6 216/4/6
f 211/4/6 212/4/6 216/4/6
f 212/5/6 213/5/6 217/5/6
f 216/4/6 212/4/6 217/4/6
f 213/4/6 214/4/6 218/4/6
f 217/5/6 213/5/6 218/5/6
f 214/4/6 215/4/6 218/4/6
f 215/4/6 169/4/6 219/4/6
f 218/4/6 215/4/6 219/4/6
