# MagicaVoxel @ Ephtracy

# group
o 

# material
mtllib MonsterBody.mtl
usemtl palette

# normals
vn -1 0 0
vn 1 0 0
vn 0 0 1
vn 0 0 -1
vn 0 -1 0
vn 0 1 0

# texcoords
vt 0.841797 0.5
vt 0.845703 0.5
vt 0.849609 0.5
vt 0.853516 0.5
vt 0.892578 0.5
vt 0.978516 0.5
vt 0.982422 0.5

# verts
v -0.4 0 0.5
v -0.4 0 -0.5
v -0.4 0.1 0.4
v -0.4 0.1 -0.4
v -0.4 0.2 0.4
v -0.4 0.2 0.3
v -0.4 0.2 0.1
v -0.4 0.2 0
v -0.4 0.2 -0.4
v -0.4 0.3 0.5
v -0.4 0.3 0.3
v -0.4 0.3 0.1
v -0.4 0.3 0
v -0.4 0.3 -0.4
v -0.4 0.3 -0.5
v -0.3 0.1 0.4
v -0.3 0.1 -0.4
v -0.3 0.2 0.4
v -0.3 0.2 0.3
v -0.3 0.2 0.1
v -0.3 0.2 0
v -0.3 0.2 -0.4
v -0.3 0.3 0.4
v -0.3 0.3 0.3
v -0.3 0.3 0.1
v -0.3 0.3 0
v -0.3 0.3 -0.4
v -0.3 0.4 0.4
v -0.3 0.4 0.1
v -0.3 0.4 -0.1
v -0.3 0.4 -0.4
v -0.3 0.5 0.4
v -0.3 0.5 0.1
v -0.3 0.5 -0.1
v -0.3 0.5 -0.4
v -0.2 0.5 0.3
v -0.2 0.5 0.1
v -0.2 0.5 -0.1
v -0.2 0.5 -0.3
v -0.2 0.6 0.3
v -0.2 0.6 0.2
v -0.2 0.6 -0.2
v -0.2 0.6 -0.3
v -0.2 0.7 0.2
v -0.2 0.7 -0.2
v -0.1 0.6 0.4
v -0.1 0.6 0.3
v -0.1 0.6 0.2
v -0.1 0.7 0.4
v -0.1 0.7 0.2
v 0.1 0.6 0.4
v 0.1 0.6 0.3
v 0.1 0.6 0.2
v 0.1 0.7 0.4
v 0.1 0.7 0.2
v 0.2 0.5 0.3
v 0.2 0.5 0.1
v 0.2 0.5 0
v 0.2 0.5 -0.1
v 0.2 0.5 -0.3
v 0.2 0.6 0.3
v 0.2 0.6 0.2
v 0.2 0.6 -0.2
v 0.2 0.6 -0.3
v 0.2 0.7 0.2
v 0.2 0.7 -0.2
v 0.3 0.1 0.4
v 0.3 0.1 -0.4
v 0.3 0.2 0.4
v 0.3 0.2 0.2
v 0.3 0.2 0.1
v 0.3 0.2 0
v 0.3 0.2 -0.2
v 0.3 0.2 -0.4
v 0.3 0.3 0.4
v 0.3 0.3 0.2
v 0.3 0.3 0.1
v 0.3 0.3 0
v 0.3 0.3 -0.2
v 0.3 0.3 -0.4
v 0.3 0.4 0.4
v 0.3 0.4 0.1
v 0.3 0.4 0
v 0.3 0.4 -0.1
v 0.3 0.4 -0.4
v 0.3 0.5 0.4
v 0.3 0.5 0.1
v 0.3 0.5 0
v 0.3 0.5 -0.1
v 0.3 0.5 -0.4
v 0.4 0 0.5
v 0.4 0 -0.5
v 0.4 0.1 0.4
v 0.4 0.1 -0.4
v 0.4 0.2 0.4
v 0.4 0.2 0.2
v 0.4 0.2 0.1
v 0.4 0.2 0
v 0.4 0.2 -0.2
v 0.4 0.2 -0.4
v 0.4 0.2 -0.5
v 0.4 0.3 0.5
v 0.4 0.3 0.4
v 0.4 0.3 0.2
v 0.4 0.3 0.1
v 0.4 0.3 0
v 0.4 0.3 -0.2
v 0.4 0.3 -0.5
v -0.4 0 0.5
v -0.4 0.3 0.5
v -0.3 0 0.5
v -0.3 0.2 0.5
v -0.3 0.3 0.5
v -0.2 0.2 0.5
v -0.2 0.3 0.5
v -0.1 0.2 0.5
v -0.1 0.3 0.5
v 0 0.2 0.5
v 0 0.3 0.5
v 0.2 0.2 0.5
v 0.2 0.3 0.5
v 0.3 0 0.5
v 0.3 0.2 0.5
v 0.3 0.3 0.5
v 0.4 0 0.5
v 0.4 0.3 0.5
v -0.3 0.3 0.4
v -0.3 0.4 0.4
v -0.3 0.5 0.4
v -0.2 0.3 0.4
v -0.1 0.3 0.4
v -0.1 0.6 0.4
v -0.1 0.7 0.4
v 0 0.3 0.4
v 0.1 0.6 0.4
v 0.1 0.7 0.4
v 0.2 0.3 0.4
v 0.2 0.4 0.4
v 0.2 0.5 0.4
v 0.3 0.3 0.4
v 0.3 0.4 0.4
v 0.3 0.5 0.4
v -0.2 0.5 0.3
v -0.2 0.6 0.3
v -0.1 0.6 0.3
v 0.1 0.6 0.3
v 0.2 0.5 0.3
v 0.2 0.6 0.3
v -0.2 0.6 0.2
v -0.2 0.7 0.2
v -0.1 0.6 0.2
v -0.1 0.7 0.2
v 0.1 0.6 0.2
v 0.1 0.7 0.2
v 0.2 0.6 0.2
v 0.2 0.7 0.2
v -0.4 0.1 -0.4
v -0.4 0.2 -0.4
v -0.3 0.1 -0.4
v -0.3 0.2 -0.4
v 0.3 0.1 -0.4
v 0.3 0.2 -0.4
v 0.4 0.1 -0.4
v 0.4 0.2 -0.4
v -0.4 0.1 0.4
v -0.4 0.2 0.4
v -0.3 0.1 0.4
v -0.3 0.2 0.4
v 0.3 0.1 0.4
v 0.3 0.2 0.4
v 0.4 0.1 0.4
v 0.4 0.2 0.4
v -0.2 0.6 -0.2
v -0.2 0.7 -0.2
v 0.2 0.6 -0.2
v 0.2 0.7 -0.2
v -0.2 0.5 -0.3
v -0.2 0.6 -0.3
v 0.2 0.5 -0.3
v 0.2 0.6 -0.3
v -0.3 0.3 -0.4
v -0.3 0.4 -0.4
v -0.3 0.5 -0.4
v -0.2 0.3 -0.4
v -0.1 0.3 -0.4
v 0.3 0.3 -0.4
v 0.3 0.4 -0.4
v 0.3 0.5 -0.4
v -0.4 0 -0.5
v -0.4 0.3 -0.5
v -0.3 0 -0.5
v -0.3 0.2 -0.5
v -0.3 0.3 -0.5
v -0.2 0.2 -0.5
v -0.2 0.3 -0.5
v -0.1 0.2 -0.5
v -0.1 0.3 -0.5
v 0.3 0 -0.5
v 0.3 0.2 -0.5
v 0.3 0.3 -0.5
v 0.4 0 -0.5
v 0.4 0.2 -0.5
v 0.4 0.3 -0.5
v -0.4 0 0.5
v -0.3 0 0.5
v 0.3 0 0.5
v 0.4 0 0.5
v -0.3 0 0.4
v 0.3 0 0.4
v -0.3 0 -0.4
v 0.3 0 -0.4
v -0.4 0 -0.5
v -0.3 0 -0.5
v 0.3 0 -0.5
v 0.4 0 -0.5
v -0.4 0.2 0.4
v -0.3 0.2 0.4
v 0.3 0.2 0.4
v 0.4 0.2 0.4
v -0.4 0.2 0.3
v -0.3 0.2 0.3
v 0.3 0.2 0.2
v 0.4 0.2 0.2
v -0.4 0.2 0.1
v -0.3 0.2 0.1
v 0.3 0.2 0.1
v 0.4 0.2 0.1
v -0.4 0.2 0
v -0.3 0.2 0
v 0.3 0.2 0
v 0.4 0.2 0
v 0.3 0.2 -0.2
v 0.4 0.2 -0.2
v -0.4 0.2 -0.4
v -0.3 0.2 -0.4
v 0.3 0.2 -0.4
v 0.4 0.2 -0.4
v -0.1 0.6 0.4
v 0.1 0.6 0.4
v -0.1 0.6 0.3
v 0.1 0.6 0.3
v -0.4 0.1 0.4
v -0.3 0.1 0.4
v 0.3 0.1 0.4
v 0.4 0.1 0.4
v -0.4 0.1 -0.4
v -0.3 0.1 -0.4
v 0.3 0.1 -0.4
v 0.4 0.1 -0.4
v -0.4 0.3 0.5
v -0.3 0.3 0.5
v -0.2 0.3 0.5
v -0.1 0.3 0.5
v 0 0.3 0.5
v 0.2 0.3 0.5
v 0.3 0.3 0.5
v 0.4 0.3 0.5
v -0.3 0.3 0.4
v -0.2 0.3 0.4
v -0.1 0.3 0.4
v 0 0.3 0.4
v 0.2 0.3 0.4
v 0.3 0.3 0.4
v 0.4 0.3 0.4
v -0.4 0.3 0.3
v -0.3 0.3 0.3
v 0.3 0.3 0.2
v 0.4 0.3 0.2
v -0.4 0.3 0.1
v -0.3 0.3 0.1
v 0.3 0.3 0.1
v 0.4 0.3 0.1
v -0.4 0.3 0
v -0.3 0.3 0
v 0.3 0.3 0
v 0.4 0.3 0
v 0.3 0.3 -0.2
v 0.4 0.3 -0.2
v -0.4 0.3 -0.4
v -0.3 0.3 -0.4
v -0.2 0.3 -0.4
v -0.1 0.3 -0.4
v 0.3 0.3 -0.4
v -0.4 0.3 -0.5
v -0.3 0.3 -0.5
v -0.2 0.3 -0.5
v -0.1 0.3 -0.5
v 0.3 0.3 -0.5
v 0.4 0.3 -0.5
v -0.3 0.5 0.4
v 0.2 0.5 0.4
v 0.3 0.5 0.4
v -0.2 0.5 0.3
v 0.2 0.5 0.3
v -0.3 0.5 0.1
v -0.2 0.5 0.1
v 0.2 0.5 0.1
v 0.3 0.5 0.1
v 0.2 0.5 0
v 0.3 0.5 0
v -0.3 0.5 -0.1
v -0.2 0.5 -0.1
v 0.2 0.5 -0.1
v 0.3 0.5 -0.1
v -0.2 0.5 -0.3
v 0.2 0.5 -0.3
v -0.3 0.5 -0.4
v 0.3 0.5 -0.4
v -0.2 0.6 0.3
v -0.1 0.6 0.3
v 0.1 0.6 0.3
v 0.2 0.6 0.3
v -0.2 0.6 0.2
v -0.1 0.6 0.2
v 0.1 0.6 0.2
v 0.2 0.6 0.2
v -0.2 0.6 -0.2
v 0.2 0.6 -0.2
v -0.2 0.6 -0.3
v 0.2 0.6 -0.3
v -0.1 0.7 0.4
v 0.1 0.7 0.4
v -0.2 0.7 0.2
v -0.1 0.7 0.2
v 0.1 0.7 0.2
v 0.2 0.7 0.2
v -0.1 0.7 0.1
v 0.1 0.7 0.1
v -0.1 0.7 -0.1
v 0.1 0.7 -0.1
v -0.2 0.7 -0.2
v 0.2 0.7 -0.2

# faces
f 3/7/1 2/7/1 1/7/1
f 4/7/1 2/7/1 3/7/1
f 5/7/1 3/7/1 1/7/1
f 9/7/1 2/7/1 4/7/1
f 10/7/1 5/7/1 1/7/1
f 10/7/1 6/7/1 5/7/1
f 11/6/1 7/6/1 6/6/1
f 11/7/1 6/7/1 10/7/1
f 12/7/1 8/7/1 7/7/1
f 12/6/1 7/6/1 11/6/1
f 13/6/1 9/6/1 8/6/1
f 13/7/1 8/7/1 12/7/1
f 14/7/1 2/7/1 9/7/1
f 14/6/1 9/6/1 13/6/1
f 15/7/1 2/7/1 14/7/1
f 18/3/1 17/3/1 16/3/1
f 19/3/1 17/3/1 18/3/1
f 20/3/1 17/3/1 19/3/1
f 21/3/1 17/3/1 20/3/1
f 22/3/1 17/3/1 21/3/1
f 28/3/1 24/3/1 23/3/1
f 28/3/1 27/3/1 26/3/1
f 28/3/1 26/3/1 25/3/1
f 28/3/1 25/3/1 24/3/1
f 29/3/1 27/3/1 28/3/1
f 30/3/1 27/3/1 29/3/1
f 31/3/1 27/3/1 30/3/1
f 32/2/1 29/2/1 28/2/1
f 33/1/1 30/1/1 29/1/1
f 33/2/1 29/2/1 32/2/1
f 34/2/1 31/2/1 30/2/1
f 34/1/1 30/1/1 33/1/1
f 35/2/1 31/2/1 34/2/1
f 40/3/1 37/3/1 36/3/1
f 40/3/1 39/3/1 38/3/1
f 40/3/1 38/3/1 37/3/1
f 41/3/1 39/3/1 40/3/1
f 42/3/1 39/3/1 41/3/1
f 43/3/1 39/3/1 42/3/1
f 44/2/1 42/2/1 41/2/1
f 45/2/1 42/2/1 44/2/1
f 49/3/1 47/3/1 46/3/1
f 49/3/1 48/3/1 47/3/1
f 50/3/1 48/3/1 49/3/1
f 51/3/2 52/3/2 54/3/2
f 52/3/2 53/3/2 54/3/2
f 54/3/2 53/3/2 55/3/2
f 56/3/2 57/3/2 61/3/2
f 59/3/2 60/3/2 61/3/2
f 58/3/2 59/3/2 61/3/2
f 57/3/2 58/3/2 61/3/2
f 61/3/2 60/3/2 62/3/2
f 62/3/2 60/3/2 63/3/2
f 63/3/2 60/3/2 64/3/2
f 62/2/2 63/2/2 65/2/2
f 65/2/2 63/2/2 66/2/2
f 67/3/2 68/3/2 69/3/2
f 69/3/2 68/3/2 70/3/2
f 70/3/2 68/3/2 71/3/2
f 71/3/2 68/3/2 72/3/2
f 72/3/2 68/3/2 73/3/2
f 73/3/2 68/3/2 74/3/2
f 75/3/2 76/3/2 81/3/2
f 79/3/2 80/3/2 81/3/2
f 78/3/2 79/3/2 81/3/2
f 77/3/2 78/3/2 81/3/2
f 76/3/2 77/3/2 81/3/2
f 81/3/2 80/3/2 82/3/2
f 82/3/2 80/3/2 83/3/2
f 83/3/2 80/3/2 84/3/2
f 84/3/2 80/3/2 85/3/2
f 81/1/2 82/1/2 86/1/2
f 82/2/2 83/2/2 87/2/2
f 86/1/2 82/1/2 87/1/2
f 83/1/2 84/1/2 88/1/2
f 87/2/2 83/2/2 88/2/2
f 84/2/2 85/2/2 89/2/2
f 88/1/2 84/1/2 89/1/2
f 89/2/2 85/2/2 90/2/2
f 91/7/2 92/7/2 93/7/2
f 93/7/2 92/7/2 94/7/2
f 91/7/2 93/7/2 95/7/2
f 94/7/2 92/7/2 100/7/2
f 100/7/2 92/7/2 101/7/2
f 91/7/2 95/7/2 102/7/2
f 95/6/2 96/6/2 103/6/2
f 102/7/2 95/7/2 103/7/2
f 96/7/2 97/7/2 104/7/2
f 103/6/2 96/6/2 104/6/2
f 97/6/2 98/6/2 105/6/2
f 104/7/2 97/7/2 105/7/2
f 98/7/2 99/7/2 106/7/2
f 105/6/2 98/6/2 106/6/2
f 99/6/2 100/6/2 107/6/2
f 106/7/2 99/7/2 107/7/2
f 100/6/2 101/6/2 107/6/2
f 107/6/2 101/6/2 108/6/2
f 111/7/3 110/7/3 109/7/3
f 112/7/3 110/7/3 111/7/3
f 113/7/3 110/7/3 112/7/3
f 114/3/3 112/3/3 111/3/3
f 114/2/3 113/2/3 112/2/3
f 115/2/3 113/2/3 114/2/3
f 116/3/3 114/3/3 111/3/3
f 116/1/3 115/1/3 114/1/3
f 117/1/3 115/1/3 116/1/3
f 118/3/3 116/3/3 111/3/3
f 118/2/3 117/2/3 116/2/3
f 119/2/3 117/2/3 118/2/3
f 120/3/3 118/3/3 111/3/3
f 120/1/3 119/1/3 118/1/3
f 121/1/3 119/1/3 120/1/3
f 122/3/3 120/3/3 111/3/3
f 123/2/3 121/2/3 120/2/3
f 123/3/3 120/3/3 122/3/3
f 124/2/3 121/2/3 123/2/3
f 125/7/3 123/7/3 122/7/3
f 125/7/3 124/7/3 123/7/3
f 126/7/3 124/7/3 125/7/3
f 130/3/3 128/3/3 127/3/3
f 131/3/3 128/3/3 130/3/3
f 134/3/3 128/3/3 131/3/3
f 135/3/3 133/3/3 132/3/3
f 136/3/3 133/3/3 135/3/3
f 137/3/3 128/3/3 134/3/3
f 138/2/3 129/2/3 128/2/3
f 138/3/3 128/3/3 137/3/3
f 139/2/3 129/2/3 138/2/3
f 140/3/3 138/3/3 137/3/3
f 141/1/3 139/1/3 138/1/3
f 141/3/3 138/3/3 140/3/3
f 142/1/3 139/1/3 141/1/3
f 145/3/3 144/3/3 143/3/3
f 146/3/3 145/3/3 143/3/3
f 147/3/3 146/3/3 143/3/3
f 148/3/3 146/3/3 147/3/3
f 151/2/3 150/2/3 149/2/3
f 152/2/3 150/2/3 151/2/3
f 155/2/3 154/2/3 153/2/3
f 156/2/3 154/2/3 155/2/3
f 159/7/3 158/7/3 157/7/3
f 160/7/3 158/7/3 159/7/3
f 163/7/3 162/7/3 161/7/3
f 164/7/3 162/7/3 163/7/3
f 165/7/4 166/7/4 167/7/4
f 167/7/4 166/7/4 168/7/4
f 169/7/4 170/7/4 171/7/4
f 171/7/4 170/7/4 172/7/4
f 173/2/4 174/2/4 175/2/4
f 175/2/4 174/2/4 176/2/4
f 177/3/4 178/3/4 179/3/4
f 179/3/4 178/3/4 180/3/4
f 181/3/4 182/3/4 184/3/4
f 184/3/4 182/3/4 185/3/4
f 185/3/4 182/3/4 186/3/4
f 182/2/4 183/2/4 187/2/4
f 186/3/4 182/3/4 187/3/4
f 187/2/4 183/2/4 188/2/4
f 189/7/4 190/7/4 191/7/4
f 191/7/4 190/7/4 192/7/4
f 192/7/4 190/7/4 193/7/4
f 191/3/4 192/3/4 194/3/4
f 192/2/4 193/2/4 194/2/4
f 194/2/4 193/2/4 195/2/4
f 191/3/4 194/3/4 196/3/4
f 194/1/4 195/1/4 196/1/4
f 196/1/4 195/1/4 197/1/4
f 191/3/4 196/3/4 198/3/4
f 196/2/4 197/2/4 199/2/4
f 198/3/4 196/3/4 199/3/4
f 199/2/4 197/2/4 200/2/4
f 198/7/4 199/7/4 201/7/4
f 199/6/4 200/6/4 202/6/4
f 201/7/4 199/7/4 202/7/4
f 202/6/4 200/6/4 203/6/4
f 208/7/5 205/7/5 204/7/5
f 208/3/5 206/3/5 205/3/5
f 209/7/5 207/7/5 206/7/5
f 209/3/5 206/3/5 208/3/5
f 210/7/5 208/7/5 204/7/5
f 210/4/5 209/4/5 208/4/5
f 211/7/5 207/7/5 209/7/5
f 211/4/5 209/4/5 210/4/5
f 212/7/5 210/7/5 204/7/5
f 213/3/5 211/3/5 210/3/5
f 213/7/5 210/7/5 212/7/5
f 214/7/5 207/7/5 211/7/5
f 214/3/5 211/3/5 213/3/5
f 215/7/5 207/7/5 214/7/5
f 220/7/5 217/7/5 216/7/5
f 221/7/5 217/7/5 220/7/5
f 222/6/5 219/6/5 218/6/5
f 223/6/5 219/6/5 222/6/5
f 224/6/5 221/6/5 220/6/5
f 225/6/5 221/6/5 224/6/5
f 226/7/5 223/7/5 222/7/5
f 227/7/5 223/7/5 226/7/5
f 228/7/5 225/7/5 224/7/5
f 229/7/5 225/7/5 228/7/5
f 230/6/5 227/6/5 226/6/5
f 231/6/5 227/6/5 230/6/5
f 232/7/5 231/7/5 230/7/5
f 233/7/5 231/7/5 232/7/5
f 234/6/5 229/6/5 228/6/5
f 235/6/5 229/6/5 234/6/5
f 236/6/5 233/6/5 232/6/5
f 237/6/5 233/6/5 236/6/5
f 240/3/5 239/3/5 238/3/5
f 241/3/5 239/3/5 240/3/5
f 242/7/6 243/7/6 246/7/6
f 246/7/6 243/7/6 247/7/6
f 244/7/6 245/7/6 248/7/6
f 248/7/6 245/7/6 249/7/6
f 250/7/6 251/7/6 258/7/6
f 251/2/6 252/2/6 258/2/6
f 252/1/6 253/1/6 259/1/6
f 258/2/6 252/2/6 259/2/6
f 253/2/6 254/2/6 260/2/6
f 259/1/6 253/1/6 260/1/6
f 254/1/6 255/1/6 261/1/6
f 260/2/6 254/2/6 261/2/6
f 255/2/6 256/2/6 262/2/6
f 261/1/6 255/1/6 262/1/6
f 256/7/6 257/7/6 263/7/6
f 262/2/6 256/2/6 263/2/6
f 263/7/6 257/7/6 264/7/6
f 250/7/6 258/7/6 265/7/6
f 265/7/6 258/7/6 266/7/6
f 263/6/6 264/6/6 267/6/6
f 267/6/6 264/6/6 268/6/6
f 265/6/6 266/6/6 269/6/6
f 269/6/6 266/6/6 270/6/6
f 267/7/6 268/7/6 271/7/6
f 271/7/6 268/7/6 272/7/6
f 269/7/6 270/7/6 273/7/6
f 273/7/6 270/7/6 274/7/6
f 271/6/6 272/6/6 275/6/6
f 275/6/6 272/6/6 276/6/6
f 275/7/6 276/7/6 277/7/6
f 277/7/6 276/7/6 278/7/6
f 273/6/6 274/6/6 279/6/6
f 279/6/6 274/6/6 280/6/6
f 277/6/6 278/6/6 283/6/6
f 279/7/6 280/7/6 284/7/6
f 280/2/6 281/2/6 285/2/6
f 284/7/6 280/7/6 285/7/6
f 281/1/6 282/1/6 286/1/6
f 285/2/6 281/2/6 286/2/6
f 282/2/6 283/2/6 287/2/6
f 286/1/6 282/1/6 287/1/6
f 283/6/6 278/6/6 288/6/6
f 287/2/6 283/2/6 288/2/6
f 288/6/6 278/6/6 289/6/6
f 290/2/6 291/2/6 293/2/6
f 291/1/6 292/1/6 294/1/6
f 293/2/6 291/2/6 294/2/6
f 290/2/6 293/2/6 295/2/6
f 295/2/6 293/2/6 296/2/6
f 294/1/6 292/1/6 297/1/6
f 297/1/6 292/1/6 298/1/6
f 297/2/6 298/2/6 299/2/6
f 299/2/6 298/2/6 300/2/6
f 295/1/6 296/1/6 301/1/6
f 301/1/6 296/1/6 302/1/6
f 299/1/6 300/1/6 303/1/6
f 303/1/6 300/1/6 304/1/6
f 301/2/6 302/2/6 305/2/6
f 303/2/6 304/2/6 306/2/6
f 301/2/6 305/2/6 307/2/6
f 305/2/6 306/2/6 307/2/6
f 306/2/6 304/2/6 308/2/6
f 307/2/6 306/2/6 308/2/6
f 309/3/6 310/3/6 313/3/6
f 313/3/6 310/3/6 314/3/6
f 311/3/6 312/3/6 315/3/6
f 315/3/6 312/3/6 316/3/6
f 317/3/6 318/3/6 319/3/6
f 319/3/6 318/3/6 320/3/6
f 321/3/6 322/3/6 324/3/6
f 324/3/6 322/3/6 325/3/6
f 323/2/6 324/2/6 327/2/6
f 325/2/6 326/2/6 327/2/6
f 324/2/6 325/2/6 327/2/6
f 327/2/6 326/2/6 328/2/6
f 323/2/6 327/2/6 329/2/6
f 327/1/6 328/1/6 329/1/6
f 328/2/6 326/2/6 330/2/6
f 329/1/6 328/1/6 330/1/6
f 323/2/6 329/2/6 331/2/6
f 329/2/6 330/2/6 331/2/6
f 330/2/6 326/2/6 332/2/6
f 331/2/6 330/2/6 332/2/6
